# Blender v2.79 (sub 0) OBJ File: 'DogCanvas5.blend'
# www.blender.org
mtllib DogCanvas6.mtl
o Cube.001
v -2.000000 3.400000 -0.100000
v -2.000000 3.400000 0.100000
v -2.000000 6.600000 -0.100000
v -2.000000 6.600000 0.100000
v 2.000000 3.400000 -0.100000
v 2.000000 3.400000 0.100000
v 2.000000 6.600000 -0.100000
v 2.000000 6.600000 0.100000
vt 0.666866 0.333133
vt 0.666866 0.000200
vt 0.999800 0.000200
vt 0.999800 0.333134
vt 0.061660 0.972080
vt 0.061660 0.925101
vt 0.583701 0.926560
vt 0.584489 0.974998
vt 0.666467 0.333533
vt 0.666467 0.666467
vt 0.333533 0.666467
vt 0.333533 0.333533
vt 0.333134 0.333533
vt 0.333134 0.666467
vt 0.000200 0.666467
vt 0.000200 0.333533
vt 0.583732 0.918174
vt 0.059824 0.918612
vt 0.060447 0.138800
vt 0.584520 0.141718
vt 0.584540 0.919973
vt 0.060227 0.917055
vt 0.061319 0.141681
vt 0.585480 0.140896
vn -1.0000 0.0000 0.0000
vn 0.0000 1.0000 0.0000
vn 1.0000 0.0000 0.0000
vn 0.0000 -1.0000 0.0000
vn 0.0000 0.0000 -1.0000
vn 0.0000 -0.0000 1.0000
usemtl None
s off
f 1/1/1 2/2/1 4/3/1 3/4/1
f 3/5/2 4/6/2 8/7/2 7/8/2
f 7/9/3 8/10/3 6/11/3 5/12/3
f 5/13/4 6/14/4 2/15/4 1/16/4
f 3/17/5 7/18/5 5/19/5 1/20/5
f 8/21/6 4/22/6 2/23/6 6/24/6
